<svg xmlns="http://www.w3.org/2000/svg" width="1024" height="1024" viewBox="0 0 1024 1024">
  <defs>
    <linearGradient id="bg" x1="0" y1="0" x2="1" y2="1">
      <stop offset="0%" stop-color="#0c1a20"/>
      <stop offset="100%" stop-color="#051015"/>
    </linearGradient>
    <linearGradient id="note" x1="0" y1="0" x2="0" y2="1">
      <stop offset="0%" stop-color="#69fff0"/>
      <stop offset="100%" stop-color="#2fc9bd"/>
    </linearGradient>
    <linearGradient id="bar" x1="0" y1="0" x2="1" y2="0">
      <stop offset="0%" stop-color="#9b8dff"/>
      <stop offset="100%" stop-color="#67e9db"/>
    </linearGradient>
  </defs>

  <rect width="1024" height="1024" rx="224" fill="url(#bg)"/>
  <circle cx="512" cy="512" r="372" fill="#0e232b" opacity="0.72"/>
  <circle cx="512" cy="512" r="312" fill="#0a161b" opacity="0.9"/>

  <rect x="250" y="180" width="524" height="54" rx="27" fill="url(#bar)"/>

  <path d="M690 252
           C642 236 590 236 536 248
           C498 257 460 272 430 297
           C399 323 377 362 373 410
           L373 666
           C373 716 331 754 281 754
           C225 754 180 709 180 653
           C180 593 228 545 289 545
           C312 545 334 551 353 562
           L353 418
           C353 334 389 266 454 219
           C515 175 588 154 668 159
           C700 161 726 187 726 219
           C726 233 713 245 690 252Z"
        fill="url(#note)"/>

  <path d="M726 219
           C726 187 700 161 668 159
           C588 154 515 175 454 219
           C389 266 353 334 353 418
           L353 562
           C334 551 312 545 289 545
           C228 545 180 593 180 653
           C180 709 225 754 281 754
           C331 754 373 716 373 666
           L373 410
           C377 362 399 323 430 297
           C460 272 498 257 536 248
           C590 236 642 236 690 252"
        fill="none" stroke="#cffff8" stroke-opacity="0.24" stroke-width="18" stroke-linecap="round" stroke-linejoin="round"/>

  <circle cx="281" cy="653" r="58" fill="#f3ffff" opacity="0.95"/>
  <circle cx="281" cy="653" r="28" fill="#0b1519"/>
  <circle cx="668" cy="632" r="58" fill="#f3ffff" opacity="0.95"/>
  <circle cx="668" cy="632" r="28" fill="#0b1519"/>

  <path d="M281 595 L281 287" stroke="#f3ffff" stroke-opacity="0.95" stroke-width="48" stroke-linecap="round"/>
  <path d="M668 574 L668 220" stroke="#f3ffff" stroke-opacity="0.95" stroke-width="48" stroke-linecap="round"/>
</svg>
